<svg xmlns="http://www.w3.org/2000/svg" viewBox="0 0 120 120"><defs><style>.a{fill:#fff;}</style></defs><title>gatelys</title><path class="a" d="M37.56,84.31l-12.7,5.84,2.32,1.22,12.71-6-2.33-1m24.2-11.12-9,4.12,2.3.84L64,73.92l-2.26-.74m17.7-8.13-6.65,3.06,2.19.62,6.6-3.12-2.14-.55M93,58.84,87.84,61.2l2.06.47L95,59.27l-2-.43m10.65-4.89-4.09,1.88,1.94.37,4-1.91-1.89-.34"/><polygon class="a" points="114 56.43 112.12 55.99 71.56 82.07 71.56 61.56 97.27 52.41 94.45 51.82 71.56 59.17 71.56 18.73 71.55 18.73 71.55 16.58 50.34 16.58 50.34 18.73 67.24 18.73 67.24 60.55 6 80.21 11.27 82.99 67.24 63.09 67.24 84.84 43.76 99.94 49.05 102.86 67.24 89.85 67.24 92.76 71.56 92.76 71.56 86.77 114 56.43"/><path class="a" d="M54,25.57H53.9a.54.54,0,0,1-.45-.62l.75-4.7a.54.54,0,0,1,1.06.17l-.75,4.7A.54.54,0,0,1,54,25.57Z"/><path class="a" d="M50.84,24.71a.54.54,0,0,1-.5-.74L52,19.83a.54.54,0,0,1,1,.41l-1.69,4.14A.54.54,0,0,1,50.84,24.71Z"/><path class="a" d="M60.09,25.57a.54.54,0,0,1-.53-.45l-.75-4.7a.54.54,0,0,1,1.06-.17l.75,4.7a.54.54,0,0,1-.45.62Z"/><path class="a" d="M63.24,24.71a.54.54,0,0,1-.5-.33l-1.69-4.14a.54.54,0,1,1,1-.41L63.74,24a.54.54,0,0,1-.5.74Z"/><path class="a" d="M57,25.72a.54.54,0,0,1-.54-.54V20.58a.54.54,0,0,1,1.08,0v4.61A.54.54,0,0,1,57,25.72Z"/></svg>