<svg xmlns="http://www.w3.org/2000/svg" viewBox="0 0 120 120"><defs><style>.a{fill:#fff;}</style></defs><title>vann</title><path class="a" d="M60,101.88A26.18,26.18,0,0,1,33.85,75.73c0-6.67,1.21-10.9,3.75-17.32,5-12.63,20-38.22,20.67-39.31L60,16.18l1.72,2.93c.64,1.08,15.68,26.68,20.67,39.31h0c2.54,6.42,3.75,10.65,3.75,17.32A26.18,26.18,0,0,1,60,101.88ZM60,24.1C55.82,31.34,45.22,50,41.32,59.89c-2.4,6.06-3.47,9.79-3.47,15.85a22.15,22.15,0,1,0,44.29,0c0-6.06-1.07-9.79-3.47-15.85C74.78,50,64.18,31.34,60,24.1Z"/></svg>